<svg id="Icon_feather-shopping-cart" data-name="Icon feather-shopping-cart" xmlns="http://www.w3.org/2000/svg" width="41.981" height="40.21" viewBox="0 0 41.981 40.21">
  <path id="Path_21" data-name="Path 21" d="M15.544,31.772A1.772,1.772,0,1,1,13.772,30,1.772,1.772,0,0,1,15.544,31.772Z" transform="translate(1.903 5.166)" fill="none" stroke="#000" stroke-linecap="round" stroke-linejoin="round" stroke-width="3"/>
  <path id="Path_22" data-name="Path 22" d="M32.044,31.772A1.772,1.772,0,1,1,30.272,30,1.772,1.772,0,0,1,32.044,31.772Z" transform="translate(4.894 5.166)" fill="none" stroke="#000" stroke-linecap="round" stroke-linejoin="round" stroke-width="3"/>
  <path id="Path_23" data-name="Path 23" d="M1.5,1.5H8.588l4.749,23.726a3.544,3.544,0,0,0,3.544,2.853H34.1a3.544,3.544,0,0,0,3.544-2.853l2.835-14.866H10.359" transform="translate(0 0)" fill="none" stroke="#000" stroke-linecap="round" stroke-linejoin="round" stroke-width="3"/>
</svg>
